<svg xmlns="http://www.w3.org/2000/svg" width="512" height="512" viewBox="0 0 135.467 135.467"><path d="M98.649 92.89c12.129-9.854 18.038-21.68 16.807-33.64-.324-3.145-1.16-6.042-2.754-9.542-2.403-5.277-2.366-5.816.88-12.777 2.31-4.956 2.987-6.83 2.97-8.22-.013-1.094-.591-2.117-1.243-2.2-1.055-.135-1.432.512-2.49 4.261-1.78 6.32-3.248 9.867-4.602 11.125-.731.68-2.52 1.04-4.766.96-1.94-.07-4.946.298-7.243.885-3.309.845-5.103 1.715-8.943 4.337-5.557 3.794-7.174 5.666-12.824 14.842-4.206 6.83-6.3 9.657-10.092 13.62-5.863 6.128-13.521 11.483-21.8 15.243-5.89 2.675-13.327 4.62-20.416 5.337-1.597.162-2.997.353-3.11.425-.445.282.415.968 3.575 2.851 5.499 3.276 11.106 5.457 17.898 6.962 15.247 3.376 29.64 1.473 44.632-5.901 3.7-1.82 10.586-6.184 13.52-8.568m-28.933-1.82c-4.758 2.518-12.232 5.405-14.238 5.5q-.75.036-.288-.124c6.126-2.116 9.612-3.846 16.325-8.104 6.968-4.418 9.952-6.82 14.772-11.884 6.805-7.15 11.673-13.901 18.678-25.902 1.588-2.72 2.956-4.931 3.039-4.912.203.045-.397 1.7-1.656 4.569-3.318 7.556-9.423 17.16-14.628 23.01-6.38 7.171-14.92 14.099-22.004 17.847" style="fill:#709697;fill-opacity:1;stroke-width:.238493"/></svg>